<svg width="30" height="30" viewBox="0 0 30 30" fill="none" xmlns="http://www.w3.org/2000/svg">
<path d="M26.0009 25.7053H3.99909C3.68696 25.7053 3.41815 25.4857 3.35611 25.1798L0.243614 9.92618C0.191428 9.67083 0.295145 9.40891 0.508159 9.25859C0.720844 9.10793 1.00246 9.09809 1.22564 9.23266L9.62312 14.2941L14.4122 4.65827C14.5221 4.43705 14.7473 4.29592 14.9944 4.29395C15.2271 4.29297 15.4687 4.42885 15.5826 4.64843L20.5305 14.1996L28.7747 9.23299C28.9982 9.09842 29.2792 9.10859 29.4922 9.25892C29.7052 9.40924 29.8089 9.67116 29.757 9.92651L26.6445 25.1801C26.5815 25.4857 26.3127 25.7053 26.0009 25.7053Z" fill="#FF9642"/>
<path d="M13.0781 17.3984H14.2422C14.6536 17.3984 14.9922 17.3281 15.2578 17.1875C15.5286 17.0417 15.7292 16.8438 15.8594 16.5938C15.9948 16.3385 16.0625 16.0443 16.0625 15.7109C16.0625 15.3828 16.0026 15.099 15.8828 14.8594C15.763 14.6146 15.5807 14.4271 15.3359 14.2969C15.0964 14.1615 14.7891 14.0938 14.4141 14.0938C14.112 14.0938 13.8333 14.1536 13.5781 14.2734C13.3281 14.3932 13.1276 14.5651 12.9766 14.7891C12.8307 15.0078 12.7578 15.2708 12.7578 15.5781H10.6875C10.6875 14.9635 10.849 14.4245 11.1719 13.9609C11.5 13.4922 11.9427 13.125 12.5 12.8594C13.0573 12.5938 13.6797 12.4609 14.3672 12.4609C15.1172 12.4609 15.7734 12.5859 16.3359 12.8359C16.9036 13.0807 17.3438 13.4427 17.6562 13.9219C17.974 14.401 18.1328 14.9948 18.1328 15.7031C18.1328 16.0417 18.0521 16.3802 17.8906 16.7188C17.7344 17.0521 17.5026 17.3542 17.1953 17.625C16.8932 17.8906 16.5208 18.1068 16.0781 18.2734C15.6406 18.4349 15.138 18.5156 14.5703 18.5156H13.0781V17.3984ZM13.0781 18.9922V17.8906H14.5703C15.2109 17.8906 15.7656 17.9661 16.2344 18.1172C16.7083 18.263 17.099 18.4714 17.4062 18.7422C17.7135 19.0078 17.9401 19.3177 18.0859 19.6719C18.237 20.026 18.3125 20.4062 18.3125 20.8125C18.3125 21.3438 18.2135 21.8177 18.0156 22.2344C17.8177 22.6458 17.5391 22.9948 17.1797 23.2812C16.8255 23.5677 16.4089 23.7865 15.9297 23.9375C15.4505 24.0833 14.9323 24.1562 14.375 24.1562C13.8906 24.1562 13.4193 24.0911 12.9609 23.9609C12.5078 23.8255 12.099 23.625 11.7344 23.3594C11.3698 23.0885 11.0807 22.75 10.8672 22.3438C10.6536 21.9323 10.5469 21.4557 10.5469 20.9141H12.6172C12.6172 21.2266 12.6927 21.5052 12.8438 21.75C13 21.9948 13.2135 22.1875 13.4844 22.3281C13.7604 22.4635 14.0703 22.5312 14.4141 22.5312C14.7943 22.5312 15.1198 22.4635 15.3906 22.3281C15.6667 22.1875 15.8776 21.9896 16.0234 21.7344C16.1693 21.474 16.2422 21.1641 16.2422 20.8047C16.2422 20.3776 16.1615 20.0312 16 19.7656C15.8385 19.5 15.6068 19.3047 15.3047 19.1797C15.0078 19.0547 14.6536 18.9922 14.2422 18.9922H13.0781Z" fill="#242424"/>
</svg>
