<svg width="30" height="30" viewBox="0 0 30 30" fill="none" xmlns="http://www.w3.org/2000/svg">
<path d="M26.0009 25.7053H3.99909C3.68696 25.7053 3.41815 25.4857 3.35611 25.1798L0.243614 9.92618C0.191428 9.67083 0.295145 9.40891 0.508159 9.25859C0.720844 9.10793 1.00246 9.09809 1.22564 9.23266L9.62312 14.2941L14.4122 4.65827C14.5221 4.43705 14.7473 4.29592 14.9944 4.29395C15.2271 4.29297 15.4687 4.42885 15.5826 4.64843L20.5305 14.1996L28.7747 9.23299C28.9982 9.09842 29.2792 9.10859 29.4922 9.25892C29.7052 9.40924 29.8089 9.67116 29.757 9.92651L26.6445 25.1801C26.5815 25.4857 26.3127 25.7053 26.0009 25.7053Z" fill="#FFD938"/>
<path d="M16.1328 12.5938V24H14.0625V15.0078L11.3203 15.9141V14.2422L15.8984 12.5938H16.1328Z" fill="#434343"/>
</svg>
