<svg width="30" height="30" viewBox="0 0 30 30" fill="none" xmlns="http://www.w3.org/2000/svg">
<path d="M26.0009 25.7053H3.99909C3.68696 25.7053 3.41815 25.4857 3.35611 25.1798L0.243614 9.92618C0.191428 9.67083 0.295145 9.40891 0.508159 9.25859C0.720844 9.10793 1.00246 9.09809 1.22564 9.23266L9.62312 14.2941L14.4122 4.65827C14.5221 4.43705 14.7473 4.29592 14.9944 4.29395C15.2271 4.29297 15.4687 4.42885 15.5826 4.64843L20.5305 14.1996L28.7747 9.23299C28.9982 9.09842 29.2792 9.10859 29.4922 9.25892C29.7052 9.40924 29.8089 9.67116 29.757 9.92651L26.6445 25.1801C26.5815 25.4857 26.3127 25.7053 26.0009 25.7053Z" fill="#646464"/>
<path d="M18.5234 22.375V24H10.8203V22.6094L14.5156 18.6172C14.901 18.1797 15.2057 17.7995 15.4297 17.4766C15.6536 17.1536 15.8125 16.862 15.9062 16.6016C16.0052 16.3359 16.0547 16.0833 16.0547 15.8438C16.0547 15.4948 15.9922 15.1901 15.8672 14.9297C15.7422 14.6641 15.5599 14.4583 15.3203 14.3125C15.0859 14.1667 14.7969 14.0938 14.4531 14.0938C14.0729 14.0938 13.7474 14.1823 13.4766 14.3594C13.2109 14.5312 13.0078 14.7708 12.8672 15.0781C12.7318 15.3854 12.6641 15.737 12.6641 16.1328H10.5938C10.5938 15.4609 10.75 14.849 11.0625 14.2969C11.375 13.7396 11.8229 13.2943 12.4062 12.9609C12.9896 12.6276 13.6823 12.4609 14.4844 12.4609C15.2656 12.4609 15.9271 12.5911 16.4688 12.8516C17.0104 13.1068 17.4219 13.4714 17.7031 13.9453C17.9844 14.4193 18.125 14.9844 18.125 15.6406C18.125 16.0052 18.0651 16.3646 17.9453 16.7188C17.8255 17.0729 17.6562 17.4245 17.4375 17.7734C17.224 18.1172 16.9688 18.4661 16.6719 18.8203C16.375 19.1745 16.0443 19.5365 15.6797 19.9062L13.4609 22.375H18.5234Z" fill="#EAE3E3"/>
</svg>
