<svg width="38" height="38" viewBox="0 0 38 38" fill="none" xmlns="http://www.w3.org/2000/svg">
<path fill-rule="evenodd" clip-rule="evenodd" d="M33.9702 8.57494C34.2745 9.03587 34.2238 9.66225 33.818 10.068L19.2634 24.6226C19.1142 24.7718 18.928 24.8786 18.7238 24.9319L12.6622 26.5152C12.4645 26.5669 12.2607 26.5658 12.0692 26.5171C11.8656 26.4653 11.676 26.3596 11.5224 26.206C11.2243 25.9079 11.1066 25.4741 11.2131 25.0662L12.7965 19.0045C12.8431 18.8259 12.9307 18.6495 13.0518 18.5111L27.6603 3.91031C27.7882 3.78243 27.9422 3.68673 28.1099 3.62842C28.2342 3.58518 28.3659 3.5625 28.5 3.5625C28.815 3.5625 29.117 3.68761 29.3397 3.91031L33.818 8.38865C33.876 8.44662 33.9267 8.50909 33.9702 8.57494ZM31.299 9.22834L28.5 6.42938L15.0129 19.9165L14.0234 23.705L17.8119 22.7154L31.299 9.22834Z" fill="currentColor"/>
<path d="M31.0988 27.1705C31.5317 23.4693 31.6695 19.7422 31.512 16.0246C31.5045 15.8466 31.5714 15.6734 31.6974 15.5474L33.2544 13.9905C33.4458 13.7991 33.7729 13.9206 33.7908 14.1907C34.0836 18.6076 33.9726 23.0447 33.4577 27.4464C33.0832 30.6487 30.5113 33.1583 27.3256 33.5144C21.8368 34.1278 16.1632 34.1278 10.6745 33.5144C7.48872 33.1583 4.91686 30.6487 4.54231 27.4464C3.88596 21.8346 3.88596 16.1654 4.54231 10.5536C4.91685 7.35126 7.48872 4.84166 10.6745 4.4856C14.8382 4.02024 19.1084 3.9079 23.3235 4.14859C23.5952 4.1641 23.719 4.49283 23.5266 4.68523L21.9551 6.25678C21.8305 6.38138 21.6596 6.44829 21.4835 6.44235C17.9583 6.32346 14.4092 6.45798 10.9383 6.84591C8.83227 7.08128 7.14525 8.74317 6.90123 10.8295C6.26632 16.258 6.26632 21.742 6.90123 27.1705C7.14525 29.2568 8.83227 30.9187 10.9383 31.1541C16.2517 31.7479 21.7484 31.7479 27.0618 31.1541C29.1678 30.9187 30.8548 29.2568 31.0988 27.1705Z" fill="currentColor"/>
</svg>
