<svg width="38" height="38" viewBox="0 0 38 38" fill="none" xmlns="http://www.w3.org/2000/svg">
<path fill-rule="evenodd" clip-rule="evenodd" d="M13.0625 19C13.0625 15.7208 15.7208 13.0625 19 13.0625C22.2792 13.0625 24.9375 15.7208 24.9375 19C24.9375 22.2792 22.2792 24.9375 19 24.9375C15.7208 24.9375 13.0625 22.2792 13.0625 19ZM19 15.4375C17.0325 15.4375 15.4375 17.0325 15.4375 19C15.4375 20.9675 17.0325 22.5625 19 22.5625C20.9675 22.5625 22.5625 20.9675 22.5625 19C22.5625 17.0325 20.9675 15.4375 19 15.4375Z" fill="black"/>
<path fill-rule="evenodd" clip-rule="evenodd" d="M6.84542 16.8567C6.18182 17.813 5.9375 18.5609 5.9375 19C5.9375 19.4391 6.18182 20.187 6.84542 21.1433C7.4869 22.0676 8.44039 23.0696 9.64673 23.9955C12.0647 25.8512 15.3796 27.3125 19 27.3125C22.6204 27.3125 25.9353 25.8512 28.3533 23.9955C29.5596 23.0696 30.5131 22.0676 31.1546 21.1433C31.8182 20.187 32.0625 19.4391 32.0625 19C32.0625 18.5609 31.8182 17.813 31.1546 16.8567C30.5131 15.9324 29.5596 14.9304 28.3533 14.0045C25.9353 12.1488 22.6204 10.6875 19 10.6875C15.3796 10.6875 12.0647 12.1488 9.64673 14.0045C8.44039 14.9304 7.4869 15.9324 6.84542 16.8567ZM8.20073 12.1205C10.9403 10.0179 14.7503 8.3125 19 8.3125C23.2497 8.3125 27.0597 10.0179 29.7993 12.1205C31.1717 13.1738 32.3051 14.3489 33.1058 15.5026C33.8843 16.6245 34.4375 17.8557 34.4375 19C34.4375 20.1443 33.8843 21.3755 33.1058 22.4974C32.3051 23.6511 31.1717 24.8262 29.7993 25.8795C27.0597 27.9821 23.2497 29.6875 19 29.6875C14.7503 29.6875 10.9403 27.9821 8.20073 25.8795C6.82832 24.8262 5.69495 23.6511 4.89425 22.4974C4.11567 21.3755 3.5625 20.1443 3.5625 19C3.5625 17.8557 4.11567 16.6245 4.89425 15.5026C5.69495 14.3489 6.82832 13.1738 8.20073 12.1205Z" fill="currentColor"/>
</svg>
