<svg width="52" height="52" viewBox="0 0 52 52" fill="none" xmlns="http://www.w3.org/2000/svg">
<path fill-rule="evenodd" clip-rule="evenodd" d="M33.9085 9.23629L35.6708 9.45577C39.7384 9.96235 42.7916 13.4195 42.7916 17.5185V40.2456C42.7916 44.2255 39.8271 47.5822 35.8777 48.074C29.3179 48.891 22.6821 48.891 16.1223 48.074C12.1729 47.5822 9.20831 44.2255 9.20831 40.2456V17.5185C9.20831 13.4194 12.2616 9.96235 16.3292 9.45577L18.0914 9.23629C18.7895 6.72112 21.0958 4.875 23.8333 4.875H28.1666C30.9042 4.875 33.2105 6.72112 33.9085 9.23629ZM17.875 12.5384L16.7308 12.6808C14.2903 12.9848 12.4583 15.0591 12.4583 17.5185V40.2456C12.4583 42.5859 14.2016 44.5597 16.524 44.849C22.817 45.6327 29.183 45.6327 35.476 44.849C37.7984 44.5597 39.5416 42.5859 39.5416 40.2456V17.5185C39.5416 15.0591 37.7097 12.9848 35.2691 12.6808L34.125 12.5384V15.1667C34.125 16.0641 33.3974 16.7917 32.5 16.7917H19.5C18.6025 16.7917 17.875 16.0641 17.875 15.1667V12.5384ZM21.125 10.8333C21.125 9.33756 22.3375 8.125 23.8333 8.125H28.1666C29.6624 8.125 30.875 9.33756 30.875 10.8333V13.5417H21.125V10.8333Z" fill="currentColor"/>
<path d="M34.125 25.4583C34.125 24.5609 33.3974 23.8333 32.5 23.8333H19.5C18.6025 23.8333 17.875 24.5609 17.875 25.4583C17.875 26.3558 18.6025 27.0833 19.5 27.0833H32.5C33.3974 27.0833 34.125 26.3558 34.125 25.4583Z" fill="currentColor"/>
<path d="M31.9583 31.9583C31.9583 31.0609 31.2308 30.3333 30.3333 30.3333H19.5C18.6025 30.3333 17.875 31.0609 17.875 31.9583C17.875 32.8558 18.6025 33.5833 19.5 33.5833H30.3333C31.2308 33.5833 31.9583 32.8558 31.9583 31.9583Z" fill="currentColor"/>
</svg>
