<svg width="52" height="52" viewBox="0 0 52 52" fill="none" xmlns="http://www.w3.org/2000/svg">
<path fill-rule="evenodd" clip-rule="evenodd" d="M29.3753 11.9909C27.4891 10.1809 24.511 10.1809 22.6248 11.9909L12.6008 21.6094C12.3552 21.8451 12.19 22.1521 12.1286 22.4869C10.928 29.0342 10.8394 35.7371 11.8665 42.3139L12.1103 43.875H18.5593V30.4171C18.5593 29.5197 19.2868 28.7921 20.1843 28.7921H31.8158C32.7133 28.7921 33.4408 29.5197 33.4408 30.4171V43.875H39.8898L40.1336 42.3139C41.1607 35.7371 41.0721 29.0342 39.8715 22.4869C39.8101 22.1521 39.6449 21.8451 39.3993 21.6094L29.3753 11.9909ZM20.3746 9.64586C23.5183 6.62928 28.4818 6.62928 31.6255 9.64586L41.6495 19.2644C42.3874 19.9725 42.8837 20.8948 43.0682 21.9007C44.3347 28.8072 44.4281 35.8778 43.3447 42.8154L42.9531 45.3232C42.7911 46.3604 41.8978 47.125 40.8481 47.125H31.8158C30.9184 47.125 30.1908 46.3975 30.1908 45.5V32.0421H21.8093V45.5C21.8093 46.3975 21.0817 47.125 20.1843 47.125H11.152C10.1023 47.125 9.20902 46.3604 9.04705 45.3232L8.6554 42.8154C7.57196 35.8778 7.66545 28.8072 8.93193 21.9007C9.11638 20.8948 9.61273 19.9725 10.3506 19.2644L20.3746 9.64586Z" fill="currentColor"/>
</svg>
