<svg width="19" height="19" viewBox="0 0 19 19" xmlns="http://www.w3.org/2000/svg">
    <path d="m16.9 12.53-3.305-.923a1.38 1.38 0 0 0-.279-.05 1.455 1.455 0 0 0-1.137.387l-1.014.947-.053.052c-.079.082-.487.45-1.116.013a2.463 2.463 0 0 0-.056-.038c-.281-.18-2.79-1.838-4.91-4.936 0 0-.346-.52.043-.913l1.09-1.152a1.55 1.55 0 0 1 .044-.044c.077-.075.435-.481.236-1.342L5.58 1.265a1.435 1.435 0 0 0-.272-.54 1.357 1.357 0 0 0-.81-.501L4.432.21C4.264.175 3.42.005 2.8.082c-.16.02-.316.07-.461.143-.58.29-2.296 1.357-2.32 3.777 0 0 .014 1.615.504 3.071 0 0 .764 2.408 2.365 4.282 0 0 2.399 3.14 5.568 5.03 0 0 1.8 1.04 3.803 1.523 0 0 1.802.426 3.237-.137 0 0 1.81-.625 2.442-2.2.06-.152.094-.313.099-.476.009-.28-.016-.774-.198-1.49 0 0-.238-.887-.937-1.074z" stroke="currentColor" stroke-width="1.5" fill="none" fill-rule="evenodd"/>
</svg>
