<svg width="38" height="38" viewBox="0 0 38 38" fill="none" xmlns="http://www.w3.org/2000/svg">
<path d="M15.8333 3.5625C15.1775 3.5625 14.6458 4.09416 14.6458 4.75V5.9375H7.91663C7.26079 5.9375 6.72913 6.46916 6.72913 7.125C6.72913 7.78084 7.26079 8.3125 7.91663 8.3125H30.0833C30.7391 8.3125 31.2708 7.78084 31.2708 7.125C31.2708 6.46916 30.7391 5.9375 30.0833 5.9375H23.3541V4.75C23.3541 4.09416 22.8225 3.5625 22.1666 3.5625H15.8333Z" fill="currentColor"/>
<path d="M15.8333 16.8625C16.4891 16.8625 17.0208 17.3942 17.0208 18.05L17.0208 29.1333C17.0208 29.7892 16.4891 30.3208 15.8333 30.3208C15.1775 30.3208 14.6458 29.7892 14.6458 29.1333L14.6458 18.05C14.6458 17.3942 15.1775 16.8625 15.8333 16.8625Z" fill="currentColor"/>
<path d="M23.3541 18.05C23.3541 17.3942 22.8225 16.8625 22.1666 16.8625C21.5108 16.8625 20.9791 17.3942 20.9791 18.05V29.1333C20.9791 29.7892 21.5108 30.3208 22.1666 30.3208C22.8225 30.3208 23.3541 29.7892 23.3541 29.1333V18.05Z" fill="currentColor"/>
<path fill-rule="evenodd" clip-rule="evenodd" d="M9.48638 12.5355C9.5532 11.9341 10.0615 11.4792 10.6666 11.4792H27.3333C27.9384 11.4792 28.4467 11.9341 28.5135 12.5355L28.8304 15.3877C29.4049 20.5578 29.4049 25.7756 28.8304 30.9457L28.7992 31.2264C28.5712 33.2787 26.9807 34.9151 24.9357 35.2014C20.9978 35.7527 17.0022 35.7527 13.0642 35.2014C11.0192 34.9151 9.4287 33.2787 9.20068 31.2264L9.16948 30.9457C8.59502 25.7756 8.59502 20.5578 9.16948 15.3877L9.48638 12.5355ZM11.7295 13.8542L11.53 15.6499C10.9749 20.6457 10.9749 25.6876 11.53 30.6834L11.5612 30.9642C11.6693 31.9375 12.4236 32.7136 13.3935 32.8493C17.113 33.3701 20.8869 33.3701 24.6064 32.8493C25.5763 32.7136 26.3306 31.9375 26.4388 30.9642L26.47 30.6834C27.025 25.6876 27.025 20.6457 26.47 15.6499L26.2704 13.8542H11.7295Z" fill="currentColor"/>
</svg>
