<svg width="38" height="38" viewBox="0 0 38 38" fill="none" xmlns="http://www.w3.org/2000/svg">
<path fill-rule="evenodd" clip-rule="evenodd" d="M12.2709 11.875C12.2709 8.15858 15.2836 5.14583 19 5.14583C22.7164 5.14583 25.7292 8.15858 25.7292 11.875C25.7292 15.5914 22.7164 18.6042 19 18.6042C15.2836 18.6042 12.2709 15.5914 12.2709 11.875ZM19 7.52083C16.5953 7.52083 14.6459 9.47026 14.6459 11.875C14.6459 14.2797 16.5953 16.2292 19 16.2292C21.4048 16.2292 23.3542 14.2797 23.3542 11.875C23.3542 9.47026 21.4048 7.52083 19 7.52083Z" fill="currentColor"/>
<path fill-rule="evenodd" clip-rule="evenodd" d="M12.6667 23.3542C10.6992 23.3542 9.10419 24.9491 9.10419 26.9167V28.7981C9.10419 28.8268 9.12495 28.8512 9.15322 28.8558C15.6746 29.9205 22.3255 29.9205 28.8468 28.8558C28.8751 28.8512 28.8959 28.8268 28.8959 28.7981V26.9167C28.8959 24.9491 27.3009 23.3542 25.3334 23.3542H24.7936C24.7519 23.3542 24.7104 23.3608 24.6708 23.3737L23.3004 23.8212C20.5061 24.7336 17.494 24.7336 14.6997 23.8212L13.3293 23.3737C13.2896 23.3608 13.2481 23.3542 13.2064 23.3542H12.6667ZM6.72919 26.9167C6.72919 23.6375 9.3875 20.9792 12.6667 20.9792H13.2064C13.4985 20.9792 13.7888 21.0254 14.0665 21.116L15.4369 21.5635C17.7522 22.3195 20.2479 22.3195 22.5632 21.5635L23.9336 21.116C24.2113 21.0254 24.5015 20.9792 24.7936 20.9792H25.3334C28.6125 20.9792 31.2709 23.6375 31.2709 26.9167V28.7981C31.2709 29.9907 30.4065 31.0076 29.2295 31.1998C22.4547 32.3059 15.5453 32.3059 8.77053 31.1998C7.5935 31.0076 6.72919 29.9907 6.72919 28.7981V26.9167Z" fill="currentColor"/>
</svg>
